<svg xmlns="http://www.w3.org/2000/svg" class="svg-standalone-icon" width="100%" viewBox="199.124 115 151.752 151.902">
  <g fill-rule="evenodd">
    <path d="M269.9281,115.14087c-15.26897,0.978 -30.04394,6.76299 -42.10492,16.48597c-3.47099,2.79899 -9.23498,8.58398 -11.91698,11.96198c-4.10099,5.16399 -8.17698,11.84398 -10.49598,17.19997c-6.79899,15.69797 -8.09598,32.34994 -3.82599,49.12191c3.20099,12.57398 9.75298,24.10195 19.25796,33.88494c11.95498,12.30498 26.75895,19.99496 43.15492,22.41596c4.54499,0.671 13.16197,0.901 17.79297,0.476c14.54297,-1.336 28.78595,-7.13599 40.63292,-16.54797c3.96599,-3.15099 10.28698,-9.64898 13.27197,-13.64397c8.24798,-11.03898 13.52597,-24.51495 14.88297,-38.00193c0.399,-3.96399 0.397,-12.31098 -0.005,-15.99397c-1.446,-13.27897 -7.31999,-27.53495 -15.84497,-38.45193c-10.06998,-12.89598 -25.59695,-22.95296 -41.40692,-26.81895c-7.39599,-1.809 -15.90297,-2.568 -23.39296,-2.088zM266.18111,127.15485c-26.98695,3.67099 -49.51391,25.57095 -54.4239,52.9099c-0.89,4.95599 -1.079,13.71797 -0.41,18.99096c1.176,9.25998 4.31299,18.00497 9.27298,25.84995c6.56399,10.38098 15.72097,18.59596 26.53195,23.79995c9.34798,4.49999 17.54997,6.38799 27.76095,6.38799c7.96698,0 13.09998,-0.802 20.22196,-3.15899c19.24696,-6.36799 34.56193,-21.60496 40.78692,-40.57792c2.85899,-8.71398 4.00099,-18.55796 3.09899,-26.69495c-1.352,-12.18298 -6.20499,-24.15795 -13.57097,-33.48694c-10.08798,-12.77498 -25.72495,-21.81996 -41.53992,-24.02595c-4.11999,-0.574 -13.48297,-0.571 -17.72897,0.006z" fill="#ffc72c"/>
    <path d="M238.93816,146.13081c-0.49,0.255 -1.203,0.754 -1.585,1.11c-0.242,0.225 -0.445,0.407 -0.616,0.616c-0.914,1.112 -0.913,2.97499 -0.913,16.05297v0.849c0,10.06598 0.107,15.55197 0.316,16.10197c0.429,1.136 1.708,2.454 2.86299,2.94699c0.786,0.337 5.65699,0.409 27.75395,0.409c25.70295,0 26.89395,0.024 29.08694,0.585c8.42698,2.155 14.42397,9.59998 14.41097,17.89097c-0.007,4.44999 -1.163,7.98398 -3.79099,11.58598c-2.15,2.94899 -6.65499,5.97999 -10.73598,7.22299c-1.457,0.444 -4.53599,0.515 -28.91394,0.66c-24.67895,0.147 -27.36795,0.209 -28.17295,0.655c-1.175,0.651 -2.407,1.976 -2.79799,3.01099c-0.441,1.168 -0.393,3.59999 0.094,4.73499c0.504,1.176 2.107,2.72799 3.29699,3.19299c0.66,0.258 7.77499,0.336 27.53695,0.303c29.20194,-0.05 28.77495,-0.026 33.94294,-1.849c5.09199,-1.796 8.36598,-3.81099 12.17098,-7.48999c3.04199,-2.94099 4.64799,-5.14499 6.40499,-8.78798c2.111,-4.37799 2.89499,-7.85699 2.90299,-12.88398c0.011,-6.61499 -1.402,-11.45898 -4.83899,-16.59897c-5.25299,-7.85699 -13.31097,-12.74498 -23.20396,-14.07797c-1.444,-0.195 -10.31998,-0.313 -23.49796,-0.313h-21.17696l-0.968,-0.865l-0.969,-0.864l-0.094,-5.08799c-0.102,-5.53899 -0.004,-5.96399 1.627,-7.03299c0.728,-0.477 2.85599,-0.516 30.31794,-0.553c29.16094,-0.039 29.55094,-0.047 30.72194,-0.648c2.25,-1.154 3.40999,-3.08199 3.40999,-5.66499c0,-1.909 -1.363,-4.01299 -3.23399,-4.99299l-1.307,-0.684l-34.57593,0.002c-30.74794,0.001 -34.67493,0.053 -35.46593,0.464z" fill="#00594f"/>
    <path d="M237.70116,206.3737c-3.54699,-3.11399 -2.548,-8.70398 1.83,-10.23398c0.588,-0.205 8.55398,-0.318 23.51096,-0.334c0.847,-0.001 1.664,-0.002 2.452,-0.003c18.94096,-0.021 21.14196,-0.023 22.50296,1.044c0.236,0.185 0.446,0.402 0.714,0.656c1.272,1.208 1.775,2.402 1.775,4.21099c0,1.796 -0.493,2.98499 -1.767,4.25899c-0.316,0.316 -0.538,0.576 -0.798,0.792c-1.329,1.104 -3.63299,1.035 -24.31095,1.109c-15.23597,0.056 -22.85796,-0.02 -23.65396,-0.235c-0.646,-0.173 -1.66,-0.743 -2.255,-1.265z" fill="#00594f"/>
  </g>
</svg>
