<svg xmlns:mydata="http://www.w3.org/2000/svg" mydata:contrastcolor="ffffff" mydata:template="Contrast" mydata:presentation="2.5" mydata:layouttype="undefined" mydata:specialfontid="undefined" mydata:id1="478" mydata:id2="217" mydata:companyname="KNMG Properties" mydata:companytagline="We Find Properties &amp; Deliver Peace" version="1.1" xmlns="http://www.w3.org/2000/svg" xmlns:xlink="http://www.w3.org/1999/xlink" viewBox="70 110 410 250" style="
"><g fill="none" fill-rule="none" stroke="none" stroke-width="1" stroke-linecap="butt" stroke-linejoin="miter" stroke-miterlimit="10" stroke-dasharray="" stroke-dashoffset="0" font-family="none" font-weight="none" font-size="none" text-anchor="none" style="mix-blend-mode: normal"><g data-paper-data="{&quot;isGlobalGroup&quot;:true,&quot;bounds&quot;:{&quot;x&quot;:71.38045550315476,&quot;y&quot;:115.00000000000001,&quot;width&quot;:407.23908899369053,&quot;height&quot;:240}}"><g data-paper-data="{&quot;isSecondaryText&quot;:true}" fill="#00594f" fill-rule="nonzero"><path d="M96.00176,354.79015h1.46892l3.21225,-11.29938h-1.38821l-2.615,9.63675l-2.77642,-9.63675h-1.29136l-2.77642,9.63675l-2.59886,-9.63675h-1.40435l3.22839,11.29938h1.45278l2.74413,-9.37848z" data-paper-data="{&quot;glyphName&quot;:&quot;W&quot;,&quot;glyphIndex&quot;:0,&quot;firstGlyphOfWord&quot;:true,&quot;word&quot;:1}"></path><path d="M105.51475,354.79015h5.53669v-1.17836h-4.22919v-3.98707h3.53509v-1.17836h-3.53509v-3.76108h4.05163v-1.19451h-5.35913z" data-paper-data="{&quot;glyphName&quot;:&quot;E&quot;,&quot;glyphIndex&quot;:1,&quot;lastGlyphOfWord&quot;:true,&quot;word&quot;:1}"></path><path d="M123.99192,354.79015h1.3075v-5.05243h3.55123v-1.17836h-3.55123v-3.87407h4.05163v-1.19451h-5.35913z" data-paper-data="{&quot;glyphName&quot;:&quot;F&quot;,&quot;glyphIndex&quot;:2,&quot;firstGlyphOfWord&quot;:true,&quot;word&quot;:2}"></path><path d="M134.89313,354.79015h1.3075v-11.29938h-1.3075z" data-paper-data="{&quot;glyphName&quot;:&quot;I&quot;,&quot;glyphIndex&quot;:3,&quot;word&quot;:2}"></path><path d="M142.09783,354.79015h1.3075v-9.20092l6.2308,9.20092h1.29136v-11.29938h-1.29136v9.2332l-6.2308,-9.2332h-1.3075z" data-paper-data="{&quot;glyphName&quot;:&quot;N&quot;,&quot;glyphIndex&quot;:4,&quot;word&quot;:2}"></path><path d="M156.84082,354.79015h2.32444c3.77722,0 6.05324,-1.90475 6.05324,-5.64969c0,-3.53509 -2.19531,-5.64969 -6.05324,-5.64969h-2.32444zM158.14832,353.62793v-8.95879h1.27522c2.71185,0 4.45518,1.64648 4.45518,4.47132c0,2.95398 -1.74333,4.48747 -4.45518,4.48747z" data-paper-data="{&quot;glyphName&quot;:&quot;D&quot;,&quot;glyphIndex&quot;:5,&quot;lastGlyphOfWord&quot;:true,&quot;word&quot;:2}"></path><path d="M177.94913,354.79015h1.3075v-4.7296h1.79176c1.98546,0 3.37367,-1.27522 3.37367,-3.3091c0,-2.05003 -1.32364,-3.26068 -3.37367,-3.26068h-3.09926zM179.25663,348.89834v-4.24534h1.67876c1.35593,0 2.14688,0.8071 2.14688,2.09846c0,1.3075 -0.79096,2.14688 -2.14688,2.14688z" data-paper-data="{&quot;glyphName&quot;:&quot;P&quot;,&quot;glyphIndex&quot;:6,&quot;firstGlyphOfWord&quot;:true,&quot;word&quot;:3}"></path><path d="M189.51216,354.79015h1.3075v-4.90716h1.92089l2.55043,4.90716h1.45278l-2.8087,-5.18157c1.3075,-0.41969 1.96932,-1.64648 1.96932,-2.98626c0,-1.96932 -1.21065,-3.13154 -3.51895,-3.13154h-2.87327zM190.81966,348.73692v-4.08392h1.48506c1.59805,0 2.22759,0.79096 2.22759,1.98546c0,1.48506 -0.82324,2.09846 -2.14688,2.09846z" data-paper-data="{&quot;glyphName&quot;:&quot;R&quot;,&quot;glyphIndex&quot;:7,&quot;word&quot;:3}"></path><path d="M201.0429,349.14047c0,3.35753 2.46972,5.85953 5.74654,5.85953c3.29296,0 5.77882,-2.53429 5.77882,-5.85953c0,-3.29296 -2.46972,-5.85953 -5.76268,-5.85953c-3.27682,0 -5.76268,2.53429 -5.76268,5.85953zM202.39882,349.14047c0,-2.64728 1.90475,-4.63274 4.40676,-4.63274c2.502,0 4.40676,1.98546 4.40676,4.63274c0,2.67957 -1.90475,4.63274 -4.40676,4.63274c-2.502,0 -4.40676,-1.95318 -4.40676,-4.63274z" data-paper-data="{&quot;glyphName&quot;:&quot;O&quot;,&quot;glyphIndex&quot;:8,&quot;word&quot;:3}"></path><path d="M217.83592,354.79015h1.3075v-4.7296h1.79176c1.98546,0 3.37367,-1.27522 3.37367,-3.3091c0,-2.05003 -1.32364,-3.26068 -3.37367,-3.26068h-3.09926zM219.14342,348.89834v-4.24534h1.67876c1.35593,0 2.14688,0.8071 2.14688,2.09846c0,1.3075 -0.79096,2.14688 -2.14688,2.14688z" data-paper-data="{&quot;glyphName&quot;:&quot;P&quot;,&quot;glyphIndex&quot;:9,&quot;word&quot;:3}"></path><path d="M229.39895,354.79015h5.53669v-1.17836h-4.22919v-3.98707h3.53509v-1.17836h-3.53509v-3.76108h4.05163v-1.19451h-5.35913z" data-paper-data="{&quot;glyphName&quot;:&quot;E&quot;,&quot;glyphIndex&quot;:10,&quot;word&quot;:3}"></path><path d="M240.41315,354.79015h1.3075v-4.90716h1.92089l2.55043,4.90716h1.45278l-2.8087,-5.18157c1.3075,-0.41969 1.96932,-1.64648 1.96932,-2.98626c0,-1.96932 -1.21065,-3.13154 -3.51895,-3.13154h-2.87327zM241.72065,348.73692v-4.08392h1.48506c1.59805,0 2.22759,0.79096 2.22759,1.98546c0,1.48506 -0.82324,2.09846 -2.14688,2.09846z" data-paper-data="{&quot;glyphName&quot;:&quot;R&quot;,&quot;glyphIndex&quot;:11,&quot;word&quot;:3}"></path><path d="M254.39747,354.79015h1.3075v-10.10487h3.03469v-1.19451h-7.39302v1.19451h3.05083z" data-paper-data="{&quot;glyphName&quot;:&quot;T&quot;,&quot;glyphIndex&quot;:12,&quot;word&quot;:3}"></path><path d="M263.89433,354.79015h1.3075v-11.29938h-1.3075z" data-paper-data="{&quot;glyphName&quot;:&quot;I&quot;,&quot;glyphIndex&quot;:13,&quot;word&quot;:3}"></path><path d="M271.11517,354.79015h5.53669v-1.17836h-4.22919v-3.98707h3.53509v-1.17836h-3.53509v-3.76108h4.05163v-1.19451h-5.35913z" data-paper-data="{&quot;glyphName&quot;:&quot;E&quot;,&quot;glyphIndex&quot;:14,&quot;word&quot;:3}"></path><path d="M281.40298,352.51414c0.35512,1.08151 1.33978,2.48586 3.53509,2.48586c2.1146,0 3.4221,-1.38821 3.4221,-3.16383c0,-3.6158 -5.31071,-3.08312 -5.31071,-5.66583c0,-0.93623 0.66182,-1.69491 1.90475,-1.69491c1.24293,0 1.85633,0.85552 2.1146,1.42049l1.09765,-0.45198c-0.27441,-0.75867 -1.17836,-2.16302 -3.19611,-2.16302c-2.0016,0 -3.22839,1.27522 -3.22839,2.88941c0,3.64808 5.29456,2.9217 5.29456,5.74654c0,1.17836 -0.85552,1.87247 -2.05003,1.87247c-1.48506,0 -2.16302,-0.88781 -2.46972,-1.75947z" data-paper-data="{&quot;glyphName&quot;:&quot;S&quot;,&quot;glyphIndex&quot;:15,&quot;lastGlyphOfWord&quot;:true,&quot;word&quot;:3}"></path><path d="M308.75823,354.90315l0.92009,-0.88781l-1.17836,-1.17836c0.6941,-1.09765 0.83938,-2.13074 0.83938,-3.43824h-1.22679c0,1.08151 -0.08071,1.71105 -0.53268,2.53429l-2.67957,-2.58271c1.54963,-0.87167 2.53429,-1.82404 2.53429,-3.22839c0,-1.67876 -1.17836,-2.84099 -3.14768,-2.84099c-2.0016,0 -3.08312,1.37207 -3.08312,2.82484c0,1.1138 0.59725,1.85633 1.22679,2.502c-1.12994,0.64568 -1.98546,1.63034 -1.98546,3.05083c0,1.85633 1.46892,3.34139 3.9225,3.34139c1.42049,0 2.56657,-0.53268 3.29296,-1.25907zM304.36761,353.83778c-1.43663,0 -2.64728,-0.82324 -2.64728,-2.24373c0,-1.06537 0.72639,-1.79176 1.54963,-2.14688l3.53509,3.40595c-0.51654,0.53268 -1.42049,0.98466 -2.43744,0.98466zM302.41444,346.1542c0,-1.03309 0.77481,-1.79176 1.88861,-1.79176c1.16222,0 1.92089,0.75867 1.92089,1.79176c0,1.04923 -0.96852,1.87247 -2.14688,2.46972c-0.85552,-0.72639 -1.66262,-1.45278 -1.66262,-2.46972z" data-paper-data="{&quot;glyphName&quot;:&quot;&amp;&quot;,&quot;glyphIndex&quot;:16,&quot;firstGlyphOfWord&quot;:true,&quot;lastGlyphOfWord&quot;:true,&quot;word&quot;:4}"></path><path d="M322.06997,354.79015h2.32444c3.77722,0 6.05324,-1.90475 6.05324,-5.64969c0,-3.53509 -2.19531,-5.64969 -6.05324,-5.64969h-2.32444zM323.37747,353.62793v-8.95879h1.27522c2.71185,0 4.45518,1.64648 4.45518,4.47132c0,2.95398 -1.74333,4.48747 -4.45518,4.48747z" data-paper-data="{&quot;glyphName&quot;:&quot;D&quot;,&quot;glyphIndex&quot;:17,&quot;firstGlyphOfWord&quot;:true,&quot;word&quot;:5}"></path><path d="M335.71531,354.79015h5.53669v-1.17836h-4.22919v-3.98707h3.53509v-1.17836h-3.53509v-3.76108h4.05163v-1.19451h-5.35913z" data-paper-data="{&quot;glyphName&quot;:&quot;E&quot;,&quot;glyphIndex&quot;:18,&quot;word&quot;:5}"></path><path d="M346.72951,354.79015h5.53669v-1.17836h-4.22919v-10.12101h-1.3075z" data-paper-data="{&quot;glyphName&quot;:&quot;L&quot;,&quot;glyphIndex&quot;:19,&quot;word&quot;:5}"></path><path d="M357.34016,354.79015h1.3075v-11.29938h-1.3075z" data-paper-data="{&quot;glyphName&quot;:&quot;I&quot;,&quot;glyphIndex&quot;:20,&quot;word&quot;:5}"></path><path d="M369.12917,354.79015l4.29376,-11.29938h-1.43663l-3.56737,9.74975l-3.55123,-9.74975h-1.43663l4.29376,11.29938z" data-paper-data="{&quot;glyphName&quot;:&quot;V&quot;,&quot;glyphIndex&quot;:21,&quot;word&quot;:5}"></path><path d="M378.20634,354.79015h5.53669v-1.17836h-4.22919v-3.98707h3.53509v-1.17836h-3.53509v-3.76108h4.05163v-1.19451h-5.35913z" data-paper-data="{&quot;glyphName&quot;:&quot;E&quot;,&quot;glyphIndex&quot;:22,&quot;word&quot;:5}"></path><path d="M389.22054,354.79015h1.3075v-4.90716h1.92089l2.55043,4.90716h1.45278l-2.8087,-5.18157c1.3075,-0.41969 1.96932,-1.64648 1.96932,-2.98626c0,-1.96932 -1.21065,-3.13154 -3.51895,-3.13154h-2.87327zM390.52804,348.73692v-4.08392h1.48506c1.59805,0 2.22759,0.79096 2.22759,1.98546c0,1.48506 -0.82324,2.09846 -2.14688,2.09846z" data-paper-data="{&quot;glyphName&quot;:&quot;R&quot;,&quot;glyphIndex&quot;:23,&quot;lastGlyphOfWord&quot;:true,&quot;word&quot;:5}"></path><path d="M408.87607,354.79015h1.3075v-4.7296h1.79176c1.98546,0 3.37367,-1.27522 3.37367,-3.3091c0,-2.05003 -1.32364,-3.26068 -3.37367,-3.26068h-3.09926zM410.18357,348.89834v-4.24534h1.67876c1.35593,0 2.14688,0.8071 2.14688,2.09846c0,1.3075 -0.79096,2.14688 -2.14688,2.14688z" data-paper-data="{&quot;glyphName&quot;:&quot;P&quot;,&quot;glyphIndex&quot;:24,&quot;firstGlyphOfWord&quot;:true,&quot;word&quot;:6}"></path><path d="M420.4391,354.79015h5.53669v-1.17836h-4.22919v-3.98707h3.53509v-1.17836h-3.53509v-3.76108h4.05163v-1.19451h-5.35913z" data-paper-data="{&quot;glyphName&quot;:&quot;E&quot;,&quot;glyphIndex&quot;:25,&quot;word&quot;:6}"></path><path d="M437.47425,351.12593l1.35593,3.66423h1.32364l-4.22919,-11.29938h-1.32364l-4.22919,11.29938h1.32364l1.35593,-3.66423zM437.08684,349.99599h-3.63194l1.8079,-5.06858z" data-paper-data="{&quot;glyphName&quot;:&quot;A&quot;,&quot;glyphIndex&quot;:26,&quot;word&quot;:6}"></path><path d="M453.0082,352.56256c-0.38741,0.32284 -1.5012,1.21065 -3.21225,1.21065c-2.615,0 -4.40676,-2.0016 -4.40676,-4.63274c0,-2.63114 1.87247,-4.63274 4.37447,-4.63274c1.5012,0 2.615,0.75867 3.05083,1.1138l0.41969,-1.16222c-0.59725,-0.48426 -1.8079,-1.17836 -3.50281,-1.17836c-3.19611,0 -5.69811,2.53429 -5.69811,5.85953c0,3.34139 2.42129,5.85953 5.7304,5.85953c1.90475,0 3.21225,-0.90395 3.64808,-1.29136z" data-paper-data="{&quot;glyphName&quot;:&quot;C&quot;,&quot;glyphIndex&quot;:27,&quot;word&quot;:6}"></path><path d="M458.63099,354.79015h5.53669v-1.17836h-4.22919v-3.98707h3.53509v-1.17836h-3.53509v-3.76108h4.05163v-1.19451h-5.35913z" data-paper-data="{&quot;glyphName&quot;:&quot;E&quot;,&quot;glyphIndex&quot;:28,&quot;lastGlyphOfWord&quot;:true,&quot;word&quot;:6}"></path></g><g data-paper-data="{&quot;isPrimaryText&quot;:true}" fill-rule="nonzero"><path d="M93.84882,330.37501c0.82604,0 1.65209,-0.41302 2.14771,-1.15646c0.24781,-0.41302 0.41302,-0.90865 0.41302,-1.32167c0,-0.82604 -0.41302,-1.65209 -1.15646,-2.14771l-16.76867,-10.65595l16.76867,-10.65595c0.74344,-0.49563 1.15646,-1.32167 1.15646,-2.14771c0,-0.49563 -0.16521,-0.90865 -0.41302,-1.32167c-0.74344,-1.15646 -2.31292,-1.48688 -3.46938,-0.74344l-16.19044,10.32553v-8.26043c0,-1.40427 -1.07386,-2.47813 -2.47813,-2.47813c-1.40427,0 -2.47813,1.07386 -2.47813,2.47813v12.72106c0,0.0826 0,0.0826 0,0.0826v12.80366c0,1.40427 1.07386,2.47813 2.47813,2.47813c1.40427,0 2.47813,-1.07386 2.47813,-2.47813v-8.26043l16.19044,10.32553c0.41302,0.33042 0.90865,0.41302 1.32167,0.41302z" data-paper-data="{&quot;glyphName&quot;:&quot;K&quot;,&quot;glyphIndex&quot;:0,&quot;firstGlyphOfWord&quot;:true,&quot;word&quot;:1}" fill="#ffc72c"></path><path d="M122.26469,330.37501c0.24781,0 0.49563,0 0.74344,-0.16521c1.07386,-0.33042 1.73469,-1.23906 1.73469,-2.31292v-25.60733c0,-1.40427 -1.15646,-2.47813 -2.47813,-2.47813c-1.40427,0 -2.56073,1.07386 -2.56073,2.47813v18.33815l-15.5296,-19.90763c-0.66083,-0.82604 -1.81729,-1.15646 -2.80855,-0.82604c-0.99125,0.41302 -1.65209,1.32167 -1.65209,2.39552v25.60733c0,1.40427 1.07386,2.47813 2.47813,2.47813c1.40427,0 2.47813,-1.07386 2.47813,-2.47813v-18.33815l15.61221,19.90763c0.49563,0.57823 1.15646,0.90865 1.9825,0.90865z" data-paper-data="{&quot;glyphName&quot;:&quot;N&quot;,&quot;glyphIndex&quot;:1,&quot;word&quot;:1}" fill="#ffc72c"></path><path d="M155.96724,330.37501c1.40427,0 2.47813,-1.07386 2.47813,-2.47813v-25.60733c0,-0.99125 -0.57823,-1.8999 -1.56948,-2.31292c-0.90865,-0.41302 -1.9825,-0.16521 -2.72594,0.57823l-10.73856,10.98637l-11.06897,-10.98637c-0.74344,-0.74344 -1.81729,-0.99125 -2.72594,-0.57823c-0.90865,0.41302 -1.56948,1.32167 -1.56948,2.31292v25.60733c0,1.40427 1.15646,2.47813 2.47813,2.47813c1.40427,0 2.56073,-1.07386 2.56073,-2.47813v-19.57721l8.59084,8.50824c0.49563,0.49563 1.07386,0.74344 1.73469,0.74344v0c0.66083,0 1.32167,-0.24781 1.81729,-0.74344l8.26043,-8.42564v19.49461c0,1.40427 1.07386,2.47813 2.47813,2.47813z" data-paper-data="{&quot;glyphName&quot;:&quot;M&quot;,&quot;glyphIndex&quot;:2,&quot;word&quot;:1}" fill="#ffc72c"></path><path d="M176.94872,330.37501c8.42564,0 15.19919,-6.77355 15.19919,-15.19919v-0.16521c0,-1.40427 -1.07386,-2.47813 -2.47813,-2.47813c-0.33042,0 -0.66083,0 -0.99125,0.16521h-11.72981c-1.40427,0 -2.47813,1.07386 -2.47813,2.47813c0,1.40427 1.07386,2.47813 2.47813,2.47813h9.91251c-1.15646,4.46063 -5.12147,7.7648 -9.91251,7.7648c-5.61709,0 -10.16033,-4.62584 -10.16033,-10.24293v-0.16521c0,-5.61709 4.54324,-10.24293 10.16033,-10.24293c2.72594,0 5.28667,1.07386 7.26918,3.05636c0.99125,0.99125 2.56073,0.99125 3.55198,0c0.99125,-0.99125 0.99125,-2.56073 0,-3.55198c-2.89115,-2.89115 -6.69095,-4.46063 -10.82116,-4.46063c-8.34303,0 -15.19919,6.77355 -15.19919,15.19919v0.16521c0,8.42564 6.85616,15.19919 15.19919,15.19919z" data-paper-data="{&quot;glyphName&quot;:&quot;G&quot;,&quot;glyphIndex&quot;:3,&quot;lastGlyphOfWord&quot;:true,&quot;word&quot;:1}" fill="#ffc72c"></path><path d="M215.1945,330.37501c1.40427,0 2.47813,-1.07386 2.47813,-2.47813v-10.32553h11.15158c4.87365,0 8.92126,-3.96501 8.92126,-8.92126c0,-4.87365 -4.04761,-8.83866 -8.92126,-8.83866h-13.62971c-1.40427,0 -2.47813,1.07386 -2.47813,2.47813c0,1.40427 1.07386,2.47813 2.47813,2.47813h13.62971c2.14771,0 3.8824,1.73469 3.8824,3.8824c0,2.14771 -1.73469,3.96501 -3.8824,3.96501h-13.62971c-1.40427,0 -2.47813,1.07386 -2.47813,2.47813v12.80366c0,1.40427 1.07386,2.47813 2.47813,2.47813z" data-paper-data="{&quot;glyphName&quot;:&quot;P&quot;,&quot;glyphIndex&quot;:4,&quot;firstGlyphOfWord&quot;:true,&quot;word&quot;:2}" fill="#00594f"></path><path d="M258.56175,317.48875c4.21282,-0.74344 7.51699,-4.37803 7.51699,-8.83866c0,-4.87365 -4.04761,-8.83866 -8.92126,-8.83866h-13.62971c-1.40427,0 -2.47813,1.07386 -2.47813,2.47813v25.60733c0,1.40427 1.07386,2.47813 2.47813,2.47813c1.40427,0 2.47813,-1.07386 2.47813,-2.47813v-23.1292h11.15158c2.14771,0 3.8824,1.73469 3.8824,3.8824c0,2.14771 -1.73469,3.96501 -3.8824,3.96501h-3.63459c0,0 0,0 -0.0826,0c-0.0826,0 -0.16521,0 -0.24781,0c-0.0826,0 -0.16521,0 -0.24781,0.0826c-0.0826,0 -0.16521,0 -0.16521,0c-0.0826,0.0826 -0.16521,0.0826 -0.24781,0.16521c-0.0826,0 -0.16521,0 -0.24781,0.0826c-0.0826,0 -0.16521,0.0826 -0.16521,0.16521c-0.0826,0 -0.0826,0 -0.0826,0c-0.0826,0 -0.0826,0.0826 -0.16521,0.0826c0,0.0826 -0.0826,0.16521 -0.16521,0.24781c-0.0826,0 -0.0826,0.0826 -0.16521,0.16521c0,0.0826 -0.0826,0.0826 -0.0826,0.16521c-0.0826,0.0826 -0.0826,0.16521 -0.16521,0.24781c0,0.0826 -0.0826,0.0826 -0.0826,0.16521c0,0.0826 -0.0826,0.16521 -0.0826,0.24781c0,0.0826 0,0.16521 0,0.24781c-0.0826,0.0826 -0.0826,0.16521 -0.0826,0.24781c0,0.0826 0,0.0826 0,0.16521v0.0826c0,0.0826 0,0.16521 0.0826,0.24781c0,0.0826 0,0.16521 0,0.24781c0,0.0826 0.0826,0.16521 0.0826,0.24781c0,0.0826 0,0.16521 0.0826,0.24781c0,0 0.0826,0.0826 0.0826,0.16521c0.0826,0.0826 0.0826,0.16521 0.16521,0.24781c0,0 0,0 0,0.0826l10.07772,12.72106c0.49563,0.66083 1.23906,0.99125 1.9825,0.99125c0.49563,0 1.07386,-0.16521 1.48688,-0.49563c1.07386,-0.90865 1.32167,-2.47813 0.41302,-3.55198z" data-paper-data="{&quot;glyphName&quot;:&quot;R&quot;,&quot;glyphIndex&quot;:5,&quot;word&quot;:2}" fill="#00594f"></path><path d="M284.5821,330.37501c8.42564,0 15.19919,-6.85616 15.19919,-15.28179c0,-8.42564 -6.77355,-15.28179 -15.19919,-15.28179c-8.34303,0 -15.19919,6.85616 -15.19919,15.28179c0,8.42564 6.85616,15.28179 15.19919,15.28179zM284.5821,304.76769c5.61709,0 10.24293,4.62584 10.24293,10.32553c0,5.6997 -4.62584,10.32553 -10.24293,10.32553c-5.61709,0 -10.16033,-4.62584 -10.16033,-10.32553c0,-5.6997 4.54324,-10.32553 10.16033,-10.32553z" data-paper-data="{&quot;glyphName&quot;:&quot;O&quot;,&quot;glyphIndex&quot;:6,&quot;word&quot;:2}" fill="#00594f"></path><path d="M305.56358,330.37501c1.40427,0 2.47813,-1.07386 2.47813,-2.47813v-10.32553h11.15158c4.87365,0 8.92126,-3.96501 8.92126,-8.92126c0,-4.87365 -4.04761,-8.83866 -8.92126,-8.83866h-13.62971c-1.40427,0 -2.47813,1.07386 -2.47813,2.47813c0,1.40427 1.07386,2.47813 2.47813,2.47813h13.62971c2.14771,0 3.8824,1.73469 3.8824,3.8824c0,2.14771 -1.73469,3.96501 -3.8824,3.96501h-13.62971c-1.40427,0 -2.47813,1.07386 -2.47813,2.47813v12.80366c0,1.40427 1.07386,2.47813 2.47813,2.47813z" data-paper-data="{&quot;glyphName&quot;:&quot;P&quot;,&quot;glyphIndex&quot;:7,&quot;word&quot;:2}" fill="#00594f"></path><path d="M353.96969,330.37501c1.32167,0 2.47813,-1.07386 2.47813,-2.47813c0,-1.40427 -1.15646,-2.47813 -2.47813,-2.47813h-20.07284c-1.40427,0 -2.47813,1.07386 -2.47813,2.47813c0,1.40427 1.07386,2.47813 2.47813,2.47813zM354.1349,317.57135c1.32167,0 2.47813,-1.07386 2.47813,-2.47813c0,-1.40427 -1.15646,-2.47813 -2.47813,-2.47813h-20.23805c-1.40427,0 -2.47813,1.07386 -2.47813,2.47813c0,1.40427 1.07386,2.47813 2.47813,2.47813zM353.96969,304.76769c1.32167,0 2.47813,-1.07386 2.47813,-2.47813c0,-1.40427 -1.15646,-2.47813 -2.47813,-2.47813h-20.07284c-1.40427,0 -2.47813,1.07386 -2.47813,2.47813c0,1.40427 1.07386,2.47813 2.47813,2.47813z" data-paper-data="{&quot;glyphName&quot;:&quot;E&quot;,&quot;glyphIndex&quot;:8,&quot;word&quot;:2}" fill="#00594f"></path><path d="M377.4293,317.48875c4.21282,-0.74344 7.51699,-4.37803 7.51699,-8.83866c0,-4.87365 -4.04761,-8.83866 -8.92126,-8.83866h-13.62971c-1.40427,0 -2.47813,1.07386 -2.47813,2.47813v25.60733c0,1.40427 1.07386,2.47813 2.47813,2.47813c1.40427,0 2.47813,-1.07386 2.47813,-2.47813v-23.1292h11.15158c2.14771,0 3.8824,1.73469 3.8824,3.8824c0,2.14771 -1.73469,3.96501 -3.8824,3.96501h-3.63459c0,0 0,0 -0.0826,0c-0.0826,0 -0.16521,0 -0.24781,0c-0.0826,0 -0.16521,0 -0.24781,0.0826c-0.0826,0 -0.16521,0 -0.16521,0c-0.0826,0.0826 -0.16521,0.0826 -0.24781,0.16521c-0.0826,0 -0.16521,0 -0.24781,0.0826c-0.0826,0 -0.16521,0.0826 -0.16521,0.16521c-0.0826,0 -0.0826,0 -0.0826,0c-0.0826,0 -0.0826,0.0826 -0.16521,0.0826c0,0.0826 -0.0826,0.16521 -0.16521,0.24781c-0.0826,0 -0.0826,0.0826 -0.16521,0.16521c0,0.0826 -0.0826,0.0826 -0.0826,0.16521c-0.0826,0.0826 -0.0826,0.16521 -0.16521,0.24781c0,0.0826 -0.0826,0.0826 -0.0826,0.16521c0,0.0826 -0.0826,0.16521 -0.0826,0.24781c0,0.0826 0,0.16521 0,0.24781c-0.0826,0.0826 -0.0826,0.16521 -0.0826,0.24781c0,0.0826 0,0.0826 0,0.16521v0.0826c0,0.0826 0,0.16521 0.0826,0.24781c0,0.0826 0,0.16521 0,0.24781c0,0.0826 0.0826,0.16521 0.0826,0.24781c0,0.0826 0,0.16521 0.0826,0.24781c0,0 0.0826,0.0826 0.0826,0.16521c0.0826,0.0826 0.0826,0.16521 0.16521,0.24781c0,0 0,0 0,0.0826l10.07772,12.72106c0.49563,0.66083 1.23906,0.99125 1.9825,0.99125c0.49563,0 1.07386,-0.16521 1.48688,-0.49563c1.07386,-0.90865 1.32167,-2.47813 0.41302,-3.55198z" data-paper-data="{&quot;glyphName&quot;:&quot;R&quot;,&quot;glyphIndex&quot;:9,&quot;word&quot;:2}" fill="#00594f"></path><path d="M400.72371,330.37501c1.40427,0 2.47813,-1.07386 2.47813,-2.47813v-23.1292h7.59959c1.32167,0 2.47813,-1.07386 2.47813,-2.47813c0,-1.40427 -1.15646,-2.47813 -2.47813,-2.47813h-20.07284c-1.40427,0 -2.47813,1.07386 -2.47813,2.47813c0,1.40427 1.07386,2.47813 2.47813,2.47813h7.51699v23.1292c0,1.40427 1.07386,2.47813 2.47813,2.47813z" data-paper-data="{&quot;glyphName&quot;:&quot;T&quot;,&quot;glyphIndex&quot;:10,&quot;word&quot;:2}" fill="#00594f"></path><path d="M419.06186,338.80065c1.40427,0 2.47813,-1.15646 2.47813,-2.56073v-37.66755c0,-1.40427 -1.07386,-2.47813 -2.47813,-2.47813c-1.40427,0 -2.47813,1.07386 -2.47813,2.47813v37.66755c0,1.40427 1.07386,2.56073 2.47813,2.56073z" data-paper-data="{&quot;glyphName&quot;:&quot;I&quot;,&quot;glyphIndex&quot;:11,&quot;word&quot;:2}" fill="#00594f"></path><path d="M447.39513,330.37501c1.32167,0 2.47813,-1.07386 2.47813,-2.47813c0,-1.40427 -1.15646,-2.47813 -2.47813,-2.47813h-20.07284c-1.40427,0 -2.47813,1.07386 -2.47813,2.47813c0,1.40427 1.07386,2.47813 2.47813,2.47813zM447.56034,317.57135c1.32167,0 2.47813,-1.07386 2.47813,-2.47813c0,-1.40427 -1.15646,-2.47813 -2.47813,-2.47813h-20.23805c-1.40427,0 -2.47813,1.07386 -2.47813,2.47813c0,1.40427 1.07386,2.47813 2.47813,2.47813zM447.39513,304.76769c1.32167,0 2.47813,-1.07386 2.47813,-2.47813c0,-1.40427 -1.15646,-2.47813 -2.47813,-2.47813h-20.07284c-1.40427,0 -2.47813,1.07386 -2.47813,2.47813c0,1.40427 1.07386,2.47813 2.47813,2.47813z" data-paper-data="{&quot;glyphName&quot;:&quot;E&quot;,&quot;glyphIndex&quot;:12,&quot;word&quot;:2}" fill="#00594f"></path><path d="M465.98109,330.37501c7.10397,0 12.63845,-3.8824 12.63845,-8.92126c0,-4.95626 -5.53449,-8.83866 -12.63845,-8.83866c-4.37803,0 -7.59959,-2.06511 -7.59959,-3.96501c0,-1.81729 3.22157,-3.8824 7.59959,-3.8824c2.47813,0 4.70844,0.66083 6.27793,1.81729c0,0 0.0826,0 0.0826,0.0826c0.33042,0.24781 0.66083,0.49563 0.82604,0.82604c0.82604,1.07386 2.39552,1.32167 3.46938,0.49563c1.15646,-0.82604 1.40427,-2.39552 0.57823,-3.46938c-1.9825,-2.64334 -5.61709,-4.37803 -9.82991,-4.70844c-0.16521,0 -0.24781,0 -0.33042,0c-0.33042,0 -0.66083,0 -1.07386,0c-7.02136,0 -12.63845,3.8824 -12.63845,8.83866c0,5.03886 5.61709,8.92126 12.63845,8.92126c4.37803,0 7.59959,2.06511 7.59959,3.8824c0,1.8999 -3.22157,3.96501 -7.59959,3.96501c-2.47813,0 -4.70844,-0.66083 -6.19532,-1.81729c-0.0826,0 -0.0826,0 -0.0826,-0.0826c-0.33042,-0.24781 -0.66083,-0.49563 -0.82604,-0.82604c-0.82604,-1.07386 -2.39552,-1.32167 -3.55198,-0.49563c-1.07386,0.74344 -1.32167,2.31292 -0.49563,3.46938c1.8999,2.64334 5.53449,4.37803 9.82991,4.70844c0.0826,0 0.16521,0 0.33042,0c0.33042,0 0.66083,0 0.99125,0z" data-paper-data="{&quot;glyphName&quot;:&quot;S&quot;,&quot;glyphIndex&quot;:13,&quot;lastGlyphOfWord&quot;:true,&quot;word&quot;:2}" fill="#00594f"></path></g><g data-paper-data="{&quot;isIcon&quot;:&quot;true&quot;,&quot;iconType&quot;:&quot;icon&quot;,&quot;rawIconId&quot;:&quot;2_5LQWlzIub9frLBd6NftawBrtjQtlaACiG1uzU3au&quot;,&quot;source&quot;:&quot;ai&quot;,&quot;selectedEffects&quot;:{&quot;container&quot;:&quot;&quot;,&quot;transformation&quot;:&quot;&quot;,&quot;pattern&quot;:&quot;&quot;},&quot;isDetailed&quot;:false,&quot;iconStyle&quot;:&quot;standalone&quot;,&quot;bounds&quot;:{&quot;x&quot;:199.1241738998917,&quot;y&quot;:115.00000000000001,&quot;width&quot;:151.75165220021668,&quot;height&quot;:151.902364691382},&quot;fillRule&quot;:&quot;evenodd&quot;,&quot;suitableAsStandaloneIcon&quot;:true}" fill-rule="evenodd"><g data-paper-data="{&quot;isPathIcon&quot;:true}"><path d="M269.9281,115.14087c-15.26897,0.978 -30.04394,6.76299 -42.10492,16.48597c-3.47099,2.79899 -9.23498,8.58398 -11.91698,11.96198c-4.10099,5.16399 -8.17698,11.84398 -10.49598,17.19997c-6.79899,15.69797 -8.09598,32.34994 -3.82599,49.12191c3.20099,12.57398 9.75298,24.10195 19.25796,33.88494c11.95498,12.30498 26.75895,19.99496 43.15492,22.41596c4.54499,0.671 13.16197,0.901 17.79297,0.476c14.54297,-1.336 28.78595,-7.13599 40.63292,-16.54797c3.96599,-3.15099 10.28698,-9.64898 13.27197,-13.64397c8.24798,-11.03898 13.52597,-24.51495 14.88297,-38.00193c0.399,-3.96399 0.397,-12.31098 -0.005,-15.99397c-1.446,-13.27897 -7.31999,-27.53495 -15.84497,-38.45193c-10.06998,-12.89598 -25.59695,-22.95296 -41.40692,-26.81895c-7.39599,-1.809 -15.90297,-2.568 -23.39296,-2.088zM266.18111,127.15485c-26.98695,3.67099 -49.51391,25.57095 -54.4239,52.9099c-0.89,4.95599 -1.079,13.71797 -0.41,18.99096c1.176,9.25998 4.31299,18.00497 9.27298,25.84995c6.56399,10.38098 15.72097,18.59596 26.53195,23.79995c9.34798,4.49999 17.54997,6.38799 27.76095,6.38799c7.96698,0 13.09998,-0.802 20.22196,-3.15899c19.24696,-6.36799 34.56193,-21.60496 40.78692,-40.57792c2.85899,-8.71398 4.00099,-18.55796 3.09899,-26.69495c-1.352,-12.18298 -6.20499,-24.15795 -13.57097,-33.48694c-10.08798,-12.77498 -25.72495,-21.81996 -41.53992,-24.02595c-4.11999,-0.574 -13.48297,-0.571 -17.72897,0.006z" fill="#ffc72c"></path><path d="M238.93816,146.13081c-0.49,0.255 -1.203,0.754 -1.585,1.11c-0.242,0.225 -0.445,0.407 -0.616,0.616c-0.914,1.112 -0.913,2.97499 -0.913,16.05297v0.849c0,10.06598 0.107,15.55197 0.316,16.10197c0.429,1.136 1.708,2.454 2.86299,2.94699c0.786,0.337 5.65699,0.409 27.75395,0.409c25.70295,0 26.89395,0.024 29.08694,0.585c8.42698,2.155 14.42397,9.59998 14.41097,17.89097c-0.007,4.44999 -1.163,7.98398 -3.79099,11.58598c-2.15,2.94899 -6.65499,5.97999 -10.73598,7.22299c-1.457,0.444 -4.53599,0.515 -28.91394,0.66c-24.67895,0.147 -27.36795,0.209 -28.17295,0.655c-1.175,0.651 -2.407,1.976 -2.79799,3.01099c-0.441,1.168 -0.393,3.59999 0.094,4.73499c0.504,1.176 2.107,2.72799 3.29699,3.19299c0.66,0.258 7.77499,0.336 27.53695,0.303c29.20194,-0.05 28.77495,-0.026 33.94294,-1.849c5.09199,-1.796 8.36598,-3.81099 12.17098,-7.48999c3.04199,-2.94099 4.64799,-5.14499 6.40499,-8.78798c2.111,-4.37799 2.89499,-7.85699 2.90299,-12.88398c0.011,-6.61499 -1.402,-11.45898 -4.83899,-16.59897c-5.25299,-7.85699 -13.31097,-12.74498 -23.20396,-14.07797c-1.444,-0.195 -10.31998,-0.313 -23.49796,-0.313h-21.17696l-0.968,-0.865l-0.969,-0.864l-0.094,-5.08799c-0.102,-5.53899 -0.004,-5.96399 1.627,-7.03299c0.728,-0.477 2.85599,-0.516 30.31794,-0.553c29.16094,-0.039 29.55094,-0.047 30.72194,-0.648c2.25,-1.154 3.40999,-3.08199 3.40999,-5.66499c0,-1.909 -1.363,-4.01299 -3.23399,-4.99299l-1.307,-0.684l-34.57593,0.002c-30.74794,0.001 -34.67493,0.053 -35.46593,0.464z" fill="#00594f"></path><path d="M237.70116,206.3737c-3.54699,-3.11399 -2.548,-8.70398 1.83,-10.23398c0.588,-0.205 8.55398,-0.318 23.51096,-0.334c0.847,-0.001 1.664,-0.002 2.452,-0.003c18.94096,-0.021 21.14196,-0.023 22.50296,1.044c0.236,0.185 0.446,0.402 0.714,0.656c1.272,1.208 1.775,2.402 1.775,4.21099c0,1.796 -0.493,2.98499 -1.767,4.25899c-0.316,0.316 -0.538,0.576 -0.798,0.792c-1.329,1.104 -3.63299,1.035 -24.31095,1.109c-15.23597,0.056 -22.85796,-0.02 -23.65396,-0.235c-0.646,-0.173 -1.66,-0.743 -2.255,-1.265z" fill="#00594f"></path></g></g></g></g><g class="watermark-group" style="opacity:0.10; stroke: white; stroke-width: 2; stroke-opacity: 0.7;"></g></svg>