<svg width="87" height="40" viewBox="0 0 87 40" fill="none" xmlns="http://www.w3.org/2000/svg">
<path id="Union" fill-rule="evenodd" clip-rule="evenodd" d="M80.3875 20C80.3875 27.4494 74.3508 33.4884 66.9042 33.4884C59.4577 33.4884 53.421 27.4494 53.421 20C53.421 12.5506 59.4577 6.51163 66.9042 6.51163C74.3508 6.51163 80.3875 12.5506 80.3875 20ZM86.8966 20C86.8966 31.0457 77.9457 40 66.9042 40C55.8628 40 46.9119 31.0457 46.9119 20C46.9119 8.95431 55.8628 0 66.9042 0C77.9457 0 86.8966 8.95431 86.8966 20ZM15.3124 22.9714C15.4502 22.8235 15.6845 22.8235 15.8224 22.9714L19.7957 27.2339C19.9206 27.3679 19.9206 27.5757 19.7957 27.7097L8.55095 39.7728C8.485 39.8435 8.39264 39.8837 8.29593 39.8837H0.349394C0.0445676 39.8837 -0.113523 39.52 0.0943686 39.297L0.955243 38.3735L15.3124 22.9714ZM36.8247 39.8837C36.728 39.8837 36.6357 39.8435 36.5697 39.7728L0.150529 0.703023C-0.0573619 0.480001 0.100728 0.116279 0.405555 0.116279H8.26156C8.35827 0.116279 8.45063 0.156456 8.51659 0.22721L44.9358 39.297C45.1437 39.52 44.9856 39.8837 44.6808 39.8837H36.8247ZM29.7631 17.0169L44.0833 1.65447L44.9701 0.703023C45.178 0.480001 45.02 0.116279 44.7151 0.116279H36.7686C36.6719 0.116279 36.5795 0.156456 36.5136 0.22721L25.2797 12.2786C25.1548 12.4126 25.1548 12.6205 25.2797 12.7544L29.253 17.0169C29.3909 17.1648 29.6252 17.1648 29.7631 17.0169Z" fill="black"/>
</svg>
